# Blender 4.1.1
# www.blender.org
mtllib playerBullet.mtl
o 円錐
v 0.600300 1.000000 -1.000000
v 0.588766 0.882887 -1.000000
v 0.554605 0.770275 -1.000000
v 0.499131 0.666491 -1.000000
v 0.424476 0.575524 -1.000000
v 0.333509 0.500869 -1.000000
v 0.229725 0.445395 -1.000000
v 0.117113 0.411234 -1.000000
v -0.000000 0.399700 -1.000000
v -0.117113 0.411234 -1.000000
v -0.229725 0.445395 -1.000000
v -0.333509 0.500869 -1.000000
v -0.424476 0.575524 -1.000000
v -0.499132 0.666491 -1.000000
v -0.554605 0.770275 -1.000000
v -0.588766 0.882887 -1.000000
v -0.600300 1.000000 -1.000000
v -0.588766 1.117113 -1.000000
v -0.554605 1.229725 -1.000000
v -0.499132 1.333509 -1.000000
v -0.424476 1.424476 -1.000000
v -0.333509 1.499131 -1.000000
v -0.229725 1.554605 -1.000000
v -0.117113 1.588766 -1.000000
v -0.000000 1.600300 -1.000000
v 0.117113 1.588766 -1.000000
v 0.229725 1.554605 -1.000000
v 0.333509 1.499131 -1.000000
v 0.424476 1.424476 -1.000000
v 0.499131 1.333509 -1.000000
v 0.554605 1.229725 -1.000000
v 0.588766 1.117113 -1.000000
v 0.000000 1.000000 1.000000
vn 0.8189 -0.0000 -0.5740
vn 0.8031 -0.1598 -0.5740
vn 0.7565 -0.3134 -0.5740
vn 0.6809 -0.4549 -0.5740
vn 0.5790 -0.5790 -0.5740
vn 0.4549 -0.6809 -0.5740
vn 0.3134 -0.7565 -0.5740
vn 0.1598 -0.8032 -0.5740
vn -0.0000 -0.8189 -0.5740
vn -0.1598 -0.8031 -0.5740
vn -0.3134 -0.7565 -0.5740
vn -0.4549 -0.6809 -0.5740
vn -0.5790 -0.5790 -0.5740
vn -0.6809 -0.4549 -0.5740
vn -0.7565 -0.3134 -0.5740
vn -0.8031 -0.1598 -0.5740
vn -0.8189 -0.0000 -0.5740
vn -0.8031 0.1598 -0.5740
vn -0.7565 0.3134 -0.5740
vn -0.6809 0.4549 -0.5740
vn -0.5790 0.5790 -0.5740
vn -0.4549 0.6809 -0.5740
vn -0.3134 0.7565 -0.5740
vn -0.1598 0.8032 -0.5740
vn -0.0000 0.8189 -0.5740
vn 0.1598 0.8031 -0.5740
vn 0.3134 0.7565 -0.5740
vn 0.4549 0.6809 -0.5740
vn 0.5790 0.5790 -0.5740
vn 0.6809 0.4549 -0.5740
vn 0.7565 0.3134 -0.5740
vn 0.8031 0.1598 -0.5740
vn -0.0000 -0.0000 1.0000
vt 0.631328 0.417402
vt 0.324251 0.324251
vt 0.643600 0.355704
vt 0.643600 0.292798
vt 0.631328 0.231100
vt 0.607255 0.172983
vt 0.572306 0.120678
vt 0.527824 0.076196
vt 0.475520 0.041248
vt 0.417402 0.017174
vt 0.355704 0.004902
vt 0.292798 0.004902
vt 0.231100 0.017174
vt 0.172983 0.041248
vt 0.120678 0.076196
vt 0.076196 0.120678
vt 0.041248 0.172982
vt 0.017174 0.231100
vt 0.004902 0.292798
vt 0.004902 0.355704
vt 0.017174 0.417402
vt 0.041248 0.475520
vt 0.076196 0.527824
vt 0.120678 0.572306
vt 0.172982 0.607254
vt 0.231100 0.631328
vt 0.292798 0.643600
vt 0.355704 0.643600
vt 0.417402 0.631328
vt 0.475520 0.607255
vt 0.527824 0.572306
vt 0.572306 0.527824
vt 0.327152 0.743325
vt 0.256675 0.975654
vt 0.024346 0.905177
vt 0.607254 0.475520
vt 0.011468 0.874085
vt 0.004902 0.841078
vt 0.004902 0.807424
vt 0.011468 0.774417
vt 0.024346 0.743325
vt 0.043043 0.715342
vt 0.066840 0.691546
vt 0.094823 0.672848
vt 0.125915 0.659970
vt 0.158922 0.653404
vt 0.192576 0.653404
vt 0.225583 0.659970
vt 0.256675 0.672848
vt 0.284658 0.691546
vt 0.308455 0.715342
vt 0.340030 0.774417
vt 0.346596 0.807424
vt 0.346596 0.841078
vt 0.340030 0.874085
vt 0.327152 0.905177
vt 0.308455 0.933160
vt 0.284658 0.956957
vt 0.225583 0.988533
vt 0.192576 0.995098
vt 0.158922 0.995098
vt 0.125915 0.988533
vt 0.094823 0.975654
vt 0.066840 0.956957
vt 0.043043 0.933160
s 1
usemtl マテリアル
f 1/1/1 33/2/33 2/3/2
f 2/3/2 33/2/33 3/4/3
f 3/4/3 33/2/33 4/5/4
f 4/5/4 33/2/33 5/6/5
f 5/6/5 33/2/33 6/7/6
f 6/7/6 33/2/33 7/8/7
f 7/8/7 33/2/33 8/9/8
f 8/9/8 33/2/33 9/10/9
f 9/10/9 33/2/33 10/11/10
f 10/11/10 33/2/33 11/12/11
f 11/12/11 33/2/33 12/13/12
f 12/13/12 33/2/33 13/14/13
f 13/14/13 33/2/33 14/15/14
f 14/15/14 33/2/33 15/16/15
f 15/16/15 33/2/33 16/17/16
f 16/17/16 33/2/33 17/18/17
f 17/18/17 33/2/33 18/19/18
f 18/19/18 33/2/33 19/20/19
f 19/20/19 33/2/33 20/21/20
f 20/21/20 33/2/33 21/22/21
f 21/22/21 33/2/33 22/23/22
f 22/23/22 33/2/33 23/24/23
f 23/24/23 33/2/33 24/25/24
f 24/25/24 33/2/33 25/26/25
f 25/26/25 33/2/33 26/27/26
f 26/27/26 33/2/33 27/28/27
f 27/28/27 33/2/33 28/29/28
f 28/29/28 33/2/33 29/30/29
f 29/30/29 33/2/33 30/31/30
f 30/31/30 33/2/33 31/32/31
f 16/33/16 24/34/24 32/35/32
f 31/32/31 33/2/33 32/36/32
f 32/36/32 33/2/33 1/1/1
f 32/35/32 1/37/1 2/38/2
f 2/38/2 3/39/3 4/40/4
f 4/40/4 5/41/5 6/42/6
f 6/42/6 7/43/7 8/44/8
f 8/44/8 9/45/9 10/46/10
f 10/46/10 11/47/11 12/48/12
f 12/48/12 13/49/13 14/50/14
f 14/50/14 15/51/15 16/33/16
f 16/33/16 17/52/17 18/53/18
f 18/53/18 19/54/19 20/55/20
f 20/55/20 21/56/21 22/57/22
f 22/57/22 23/58/23 24/34/24
f 24/34/24 25/59/25 26/60/26
f 26/60/26 27/61/27 28/62/28
f 28/62/28 29/63/29 30/64/30
f 30/64/30 31/65/31 32/35/32
f 32/35/32 2/38/2 4/40/4
f 4/40/4 6/42/6 8/44/8
f 8/44/8 10/46/10 12/48/12
f 12/48/12 14/50/14 16/33/16
f 16/33/16 18/53/18 20/55/20
f 20/55/20 22/57/22 24/34/24
f 24/34/24 26/60/26 28/62/28
f 28/62/28 30/64/30 32/35/32
f 32/35/32 4/40/4 8/44/8
f 8/44/8 12/48/12 16/33/16
f 16/33/16 20/55/20 24/34/24
f 24/34/24 28/62/28 32/35/32
f 32/35/32 8/44/8 16/33/16
